# xmcd
#
# Track frame offsets:
#	150
#	12699
#	23107
#	35311
#	48264
#	61105
#	73243
#	85902
#	99466
#	112266
#	125330
#	139170
#
# Disc length: 2053 seconds
#
# Revision: 1
# Processed by: cddbd v1.5.2PL0 Copyright (c) Steve Scherf et al.
# Submitted via: audiograbber 1.83.01
#
DISCID=a508030c
DTITLE=Dinah Washington - Dinah Washington
DYEAR=2004
DGENRE=Jazz
TTITLE0=Ain't Misbehavin'
TTITLE1=Come Rain or Come Shine (Live)
TTITLE2=Do Nothin' Til' You Hear From Me (Live)
TTITLE3=Embraceable You
TTITLE4=I Wanna Be Loved
TTITLE5=It's Too Soon to Know
TTITLE6=No Love, No Nothin'
TTITLE7=How Deep Is the Ocean
TTITLE8=Blues for a Day
TTITLE9=Rich Man's Blues
TTITLE10=Salty Papa Blues
TTITLE11=Blow Top Blues
EXTD=
EXTT0=
EXTT1=
EXTT2=
EXTT3=
EXTT4=
EXTT5=
EXTT6=
EXTT7=
EXTT8=
EXTT9=
EXTT10=
EXTT11=
PLAYORDER=
